<svg width="317" height="316" viewBox="0 0 317 316" fill="none" xmlns="http://www.w3.org/2000/svg">
<path d="M158.5 0L163.311 66.4856L175.068 0.865538L172.881 67.4882L191.454 3.45269L182.293 69.4826L207.478 7.73313L191.445 72.4467L222.967 13.6599L200.236 76.3481L237.75 21.168L208.569 81.1442L251.663 30.1753L216.352 86.7823L264.558 40.5831L223.504 93.2007L276.289 52.2774L229.943 100.329L286.728 65.1299L235.599 108.089L295.765 79L240.41 116.396L303.297 93.7356L244.324 125.159L309.243 109.175L247.297 134.282L313.536 125.15L249.297 143.664L316.132 141.485L250.304 153.204L317 158L250.304 162.796L316.132 174.515L249.297 172.336L313.536 190.85L247.297 181.718L309.243 206.825L244.324 190.841L303.297 222.264L240.41 199.604L295.765 237L235.599 207.911L286.728 250.87L229.943 215.671L276.289 263.723L223.504 222.799L264.558 275.417L216.352 229.218L251.663 285.825L208.569 234.856L237.75 294.832L200.236 239.652L222.967 302.34L191.445 243.553L207.478 308.267L182.293 246.517L191.454 312.547L172.881 248.512L175.068 315.134L163.311 249.514L158.5 316L153.689 249.514L141.932 315.134L144.119 248.512L125.546 312.547L134.707 246.517L109.521 308.267L125.555 243.553L94.0322 302.34L116.765 239.652L79.25 294.832L108.431 234.856L65.336 285.825L100.647 229.218L52.4428 275.417L93.4957 222.799L40.7115 263.723L87.0569 215.671L30.2708 250.87L81.401 207.911L21.2349 237L76.5897 199.604L13.703 222.264L72.6759 190.841L7.75755 206.825L69.7025 181.718L3.46359 190.85L67.7017 172.336L0.868277 174.515L66.696 162.796L0 158L66.696 153.204L0.868277 141.485L67.7017 143.664L3.46359 125.15L69.7025 134.282L7.75755 109.175L72.6759 125.159L13.703 93.7356L76.5897 116.396L21.2349 79L81.401 108.089L30.2708 65.1299L87.0569 100.329L40.7115 52.2774L93.4957 93.2007L52.4428 40.5831L100.647 86.7823L65.336 30.1753L108.431 81.1442L79.25 21.168L116.765 76.3481L94.0322 13.6599L125.555 72.4467L109.521 7.73313L134.707 69.4826L125.546 3.45269L144.119 67.4882L141.932 0.865538L153.689 66.4856L158.5 0Z" fill="#ECE8D9"/>
</svg>
