<svg width="56" height="56" viewBox="0 0 56 56" fill="none" xmlns="http://www.w3.org/2000/svg">
<path d="M27.5746 0L30.0057 14.2127L37.1512 1.68861L34.5746 15.8756L45.5727 6.55076L38.2992 19.001L51.8233 14L40.7303 23.2117L55.1492 23.1379L41.5746 28L55.1492 32.8621L40.7303 32.7883L51.8233 42L38.2992 36.999L45.5727 49.4492L34.5746 40.1244L37.1512 54.3114L30.0057 41.7873L27.5746 56L25.1435 41.7873L17.998 54.3114L20.5746 40.1244L9.57652 49.4492L16.85 36.999L3.32591 42L14.4189 32.7883L0 32.8621L13.5746 28L0 23.1379L14.4189 23.2117L3.32591 14L16.85 19.001L9.57652 6.55076L20.5746 15.8756L17.998 1.68861L25.1435 14.2127L27.5746 0Z" fill="#ECE8D9"/>
</svg>
