<svg width="26" height="32" viewBox="0 0 26 32" fill="none" xmlns="http://www.w3.org/2000/svg">
<path d="M24.5334 12.2667C24.5334 17.0965 21.7299 21.3396 17.5554 23.3371C17.4811 23.3727 17.4027 23.3895 17.3255 23.3895C16.7614 23.3895 16.5834 22.6198 17.095 22.375C20.9656 20.5228 23.4667 16.5551 23.4667 12.2667C23.4667 11.9722 23.7055 11.7334 24 11.7334C24.2946 11.7334 24.5334 11.9721 24.5334 12.2667ZM15.5334 25.1961C15.2388 25.1961 15 25.4349 15 25.7295V29.8667C15 30.4548 14.5215 30.9333 13.9334 30.9333H10.6C10.0119 30.9333 9.53336 30.4548 9.53336 29.8667V26.5H12.9334C13.2279 26.5 13.4667 26.2612 13.4667 25.9667C13.4667 25.6721 13.2279 25.4333 12.9334 25.4333H9.52116C9.41616 24.1215 8.62066 22.9413 7.43396 22.3729C3.566 20.5199 1.06667 16.553 1.06667 12.2667C1.06667 6.0822 6.0698 1.06667 12.2666 1.06667C14.3124 1.06667 16.3118 1.6172 18.0473 2.65993C18.3 2.81167 18.6275 2.72993 18.7792 2.47747C18.9308 2.22493 18.8492 1.89733 18.5967 1.7456C16.7464 0.634 14.5655 0 12.2666 0C5.49367 0 0 5.4794 0 12.2667C0 17.0947 2.80127 21.3363 6.97316 23.3348C7.88036 23.7695 8.46666 24.7093 8.46666 25.7293V29.8667C8.46666 31.043 9.42366 32 10.6 32H13.9334C15.1097 32 16.0667 31.043 16.0667 29.8667V25.7295C16.0667 25.4349 15.828 25.1961 15.5334 25.1961ZM21.8634 10.1323C22.2542 10.5231 22.2543 11.1556 21.8634 11.5465C21.4727 11.9372 20.84 11.9373 20.4492 11.5465C20.0594 11.1566 20.0594 10.5222 20.4492 10.1323C20.8399 9.74147 21.4726 9.74133 21.8634 10.1323ZM23.6076 9.14227C23.816 8.934 23.816 8.59633 23.6076 8.38807C22.2529 7.03327 20.06 7.03307 18.705 8.38807C18.368 8.72507 18.6114 9.29853 19.0822 9.29853C19.2186 9.29853 19.3552 9.24647 19.4593 9.14233C20.3972 8.2044 21.9153 8.20433 22.8534 9.14233C23.0616 9.35053 23.3994 9.35053 23.6076 9.14227ZM25.5876 6.4082C23.1384 3.95907 19.1745 3.9588 16.7252 6.4082C16.5168 6.61647 16.5168 6.95413 16.7252 7.1624C16.9335 7.37073 17.2711 7.37067 17.4794 7.1624C19.5116 5.1302 22.8008 5.12993 24.8333 7.1624C25.0416 7.37067 25.3792 7.37067 25.5875 7.1624C25.7958 6.95413 25.7958 6.61647 25.5876 6.4082ZM16.8667 14.5333C16.8667 15.6361 15.9695 16.5333 14.8667 16.5333H13.9334V22.6667C13.9334 22.9612 13.6946 23.2 13.4 23.2C13.1055 23.2 12.8667 22.9612 12.8667 22.6667V16.5333H11.6667V23.3333C11.6667 23.6279 11.4279 23.8667 11.1334 23.8667C10.8388 23.8667 10.6 23.6279 10.6 23.3333V16.5333H9.66666C8.56386 16.5333 7.66666 15.6361 7.66666 14.5333C7.66666 13.4305 8.56386 12.5333 9.66666 12.5333C10.7695 12.5333 11.6667 13.4305 11.6667 14.5333V15.4667H12.8667V14.5333C12.8667 13.4305 13.7639 12.5333 14.8667 12.5333C15.9695 12.5333 16.8667 13.4305 16.8667 14.5333ZM9.66666 15.4667H10.6V14.5333C10.6 14.0187 10.1814 13.6 9.66666 13.6C9.15196 13.6 8.73336 14.0187 8.73336 14.5333C8.73336 15.048 9.15196 15.4667 9.66666 15.4667ZM15.8 14.5333C15.8 14.0187 15.3814 13.6 14.8667 13.6C14.352 13.6 13.9334 14.0187 13.9334 14.5333V15.4667H14.8667C15.3814 15.4667 15.8 15.048 15.8 14.5333Z" fill="#9F9B8D"/>
</svg>
