<svg width="31" height="32" viewBox="0 0 31 32" fill="none" xmlns="http://www.w3.org/2000/svg">
<path d="M30.0259 22.059L27.7846 25.941C27.6512 26.1719 27.3681 26.2694 27.1209 26.1696L23.8217 24.8378C23.5477 24.7272 23.4152 24.4154 23.5258 24.1414C23.6364 23.8673 23.9482 23.7348 24.2223 23.8455L27.0903 25.0033L28.8666 21.9266L26.433 20.0241C26.2583 19.8876 26.186 19.6575 26.251 19.4455C26.9251 17.2512 26.9508 14.8327 26.251 12.5546C26.186 12.3427 26.2583 12.1126 26.433 11.976L28.8666 10.0736L27.0903 6.99687L24.2223 8.15462C24.0166 8.23775 23.7812 8.18525 23.6302 8.02286C22.0194 6.29091 19.9573 5.09925 17.6668 4.57663C17.4504 4.52727 17.2868 4.34942 17.256 4.12958L16.8251 1.07013H13.2725L12.8416 4.12944C12.8106 4.34922 12.6472 4.52707 12.4308 4.57649C10.1403 5.09912 8.07813 6.29085 6.46738 8.02272C6.31636 8.18512 6.08093 8.23762 5.87526 8.15448L3.00724 6.99673L1.23088 10.0734L3.6645 11.9759C3.8392 12.1124 3.9115 12.3425 3.84642 12.5545C3.17237 14.7488 3.14662 17.1673 3.84642 19.4454C3.9115 19.6573 3.8392 19.8874 3.6645 20.024L1.23088 21.9264L3.00724 25.0031L5.87526 23.8454C6.08093 23.7622 6.31642 23.8148 6.46738 23.9771C8.07813 25.7091 10.1403 26.9007 12.4308 27.4234C12.6472 27.4727 12.8106 27.6506 12.8416 27.8704L13.2725 30.9297H16.8251L17.256 27.8704C17.2868 27.6506 17.4504 27.4728 17.6668 27.4234C18.921 27.1372 20.1132 26.6474 21.21 25.9677C21.4615 25.8122 21.7911 25.8897 21.9467 26.1408C22.1023 26.392 22.0249 26.7218 21.7737 26.8775C20.6817 27.5541 19.5029 28.0584 18.2651 28.379L17.82 31.5394C17.7828 31.8034 17.5568 31.9999 17.2902 31.9999H12.8076C12.5409 31.9999 12.3149 31.8034 12.2777 31.5394L11.8326 28.379C9.59475 27.7999 7.57042 26.6301 5.93974 24.9734L2.97674 26.1694C2.72947 26.2694 2.44642 26.1718 2.31305 25.9408L0.0717314 22.0588C-0.0616356 21.8278 -0.00451748 21.534 0.205562 21.3697L2.72004 19.404C2.10833 17.1843 2.10819 14.8159 2.72004 12.5956L0.205562 10.6299C-0.00451748 10.4656 -0.0616356 10.1718 0.0717314 9.9408L2.31305 6.05876C2.44642 5.82781 2.7294 5.7303 2.97674 5.83015L5.93974 7.02623C7.57042 5.36953 9.59475 4.19967 11.8326 3.6206L12.2777 0.460157C12.3148 0.196436 12.5408 0 12.8075 0H17.2901C17.5567 0 17.7826 0.196436 17.8199 0.460425L18.265 3.62086C20.5028 4.19994 22.5272 5.3698 24.1579 7.0265L27.1209 5.83042C27.3682 5.7307 27.6513 5.82801 27.7846 6.05903L30.0259 9.94107C30.1592 10.172 30.1021 10.4659 29.892 10.6302L27.3776 12.5959C27.9893 14.8156 27.9894 17.184 27.3776 19.4043L29.892 21.37C30.1021 21.5342 30.1592 21.828 30.0259 22.059ZM14.1723 18.5453L16.8477 13.9973C16.9975 13.7425 16.9125 13.4146 16.6578 13.2648C16.4031 13.115 16.0751 13.2 15.9253 13.4547L13.2499 18.0027C13.1001 18.2575 13.1851 18.5854 13.4398 18.7352C13.6946 18.885 14.0226 18.8 14.1723 18.5453ZM12.083 13.9488C11.8741 13.74 11.5353 13.7399 11.3263 13.9488L9.65335 15.6217C9.44455 15.8306 9.44445 16.1694 9.65335 16.3784L11.3263 18.0513C11.5353 18.2602 11.874 18.2602 12.083 18.0513C12.292 17.8423 12.292 17.5035 12.083 17.2946L10.7884 16.0001L12.083 14.7056C12.292 14.4966 12.292 14.1578 12.083 13.9488ZM18.3261 18.208C18.463 18.208 18.6 18.1558 18.7045 18.0513L20.3774 16.3783C20.5862 16.1694 20.5863 15.8306 20.3774 15.6216L18.7045 13.9487C18.4955 13.7398 18.1568 13.7398 17.9478 13.9487C17.7388 14.1577 17.7388 14.4965 17.9478 14.7054L19.2423 15.9999L17.9478 17.2944C17.6096 17.6328 17.8537 18.208 18.3261 18.208ZM11.9175 24.5402C12.9388 24.9146 13.9977 25.1011 15.054 25.101C21.6637 25.1006 26.0936 18.199 23.3016 12.175C21.1926 7.62457 15.7746 5.63813 11.2238 7.7471C5.43844 10.4285 4.12673 18.1377 8.75378 22.5692C8.96721 22.7737 9.30595 22.7664 9.51035 22.5529C9.71465 22.3396 9.70745 22.0008 9.49395 21.7964C5.41403 17.8887 6.56637 11.0851 11.6738 8.71804C15.6892 6.85715 20.4697 8.60976 22.3306 12.625C24.1916 16.6402 22.4389 21.4209 18.4236 23.2819C16.4785 24.1834 14.2987 24.2734 12.2857 23.5354C12.0083 23.4338 11.7008 23.5762 11.5991 23.8536C11.4975 24.1311 11.64 24.4385 11.9175 24.5402Z" fill="#CBC7B5"/>
</svg>
