<svg width="32" height="32" viewBox="0 0 32 32" fill="none" xmlns="http://www.w3.org/2000/svg">
<path d="M27.9243 15.2951V29.3239C27.9243 30.7938 26.7284 31.9897 25.2585 31.9897H12.7292C11.2593 31.9897 10.0634 30.7938 10.0634 29.3239V2.6658C10.0634 1.19588 11.2593 0 12.7292 0H25.2585C26.7284 0 27.9243 1.19588 27.9243 2.6658V3.79876C27.9243 4.0932 27.6855 4.33192 27.3911 4.33192C27.0967 4.33192 26.8579 4.0932 26.8579 3.79876V2.6658C26.8579 1.78389 26.1404 1.06632 25.2585 1.06632H15.1015L15.6135 1.98789C15.7544 2.2416 16.0223 2.39922 16.3126 2.39922H21.675C21.9695 2.39922 22.2082 2.63794 22.2082 2.93238C22.2082 3.22682 21.9695 3.46554 21.675 3.46554H16.3126C15.6353 3.46554 15.0103 3.09773 14.6813 2.50572L13.8816 1.06632H12.7292C11.8473 1.06632 11.1297 1.78389 11.1297 2.6658V29.3239C11.1297 30.2058 11.8473 30.9233 12.7292 30.9233H25.2585C26.1404 30.9233 26.8579 30.2058 26.8579 29.3239V15.2951C26.8579 15.0006 27.0967 14.7619 27.3911 14.7619C27.6855 14.7619 27.9243 15.0006 27.9243 15.2951ZM8.53056 0.53316C8.53056 0.238722 8.29184 0 7.9974 0H2.6658C1.19588 0 0 1.19588 0 2.6658V29.3239C0 30.7938 1.19588 31.9897 2.6658 31.9897H7.9974C8.29184 31.9897 8.53056 31.7509 8.53056 31.4565C8.53056 31.1621 8.29184 30.9233 7.9974 30.9233H2.6658C1.78389 30.9233 1.06632 30.2058 1.06632 29.3239V2.6658C1.06632 1.78389 1.78389 1.06632 2.6658 1.06632H7.9974C8.29184 1.06632 8.53056 0.827598 8.53056 0.53316ZM4.86509 8.13069C4.86509 8.6084 4.47641 8.99707 3.9987 8.99707C3.52099 8.99707 3.13232 8.6084 3.13232 8.13069C3.13232 7.65298 3.52099 7.2643 3.9987 7.2643C4.47641 7.2643 4.86509 7.65291 4.86509 8.13069ZM4.86509 4.13199C4.86509 4.6097 4.47641 4.99837 3.9987 4.99837C3.52099 4.99837 3.13232 4.6097 3.13232 4.13199C3.13232 3.65428 3.52099 3.2656 3.9987 3.2656C4.47641 3.2656 4.86509 3.65421 4.86509 4.13199ZM6.6645 5.26495C7.14221 5.26495 7.53089 5.65363 7.53089 6.13134C7.53089 6.60905 7.14221 6.99772 6.6645 6.99772C6.18679 6.99772 5.79812 6.60905 5.79812 6.13134C5.79812 5.65363 6.18679 5.26495 6.6645 5.26495ZM28.1209 11.5756C28.7506 12.2053 28.2985 13.2821 27.414 13.2821C26.5302 13.2821 26.0769 12.2058 26.7072 11.5756C27.0978 11.1848 27.7302 11.1847 28.1209 11.5756C28.1209 11.5755 28.1209 11.5755 28.1209 11.5756ZM24.9635 9.83187C24.7553 10.0401 24.7553 10.3777 24.9635 10.5859C25.1718 10.7941 25.5093 10.7941 25.7175 10.5859C26.6551 9.6482 28.1729 9.64813 29.1105 10.5859C29.2147 10.69 29.351 10.742 29.4875 10.742C29.9582 10.742 30.2014 10.1687 29.8645 9.8318C28.5103 8.47751 26.3181 8.47731 24.9635 9.83187ZM31.8439 7.85258C29.3955 5.40424 25.4329 5.40404 22.9843 7.85258C22.7761 8.06078 22.7761 8.39834 22.9843 8.60653C23.1925 8.81473 23.53 8.81473 23.7383 8.60653C25.7651 6.57966 29.063 6.57979 31.0898 8.60653C31.2981 8.8148 31.6355 8.81473 31.8438 8.60653C32.0521 8.39834 32.0521 8.06078 31.8439 7.85258Z" fill="#9F9B8D"/>
</svg>
