<svg width="257" height="257" viewBox="0 0 257 257" fill="none" xmlns="http://www.w3.org/2000/svg">
<path d="M128.371 0L134.821 56.8297L151.316 2.065L147.515 59.1332L173.523 8.194L159.593 63.6663L194.279 18.189L170.668 70.2831L212.916 31.7303L180.383 78.7711L228.836 48.3816L188.427 88.8575L241.528 67.6079L194.54 100.218L250.582 88.7913L198.527 112.487L255.708 111.251L200.259 125.272L256.742 134.265L199.68 138.159L253.649 157.094L196.809 150.737L246.53 179.004L191.739 162.6L235.614 199.29L184.632 173.366L221.25 217.301L175.716 182.691L203.901 232.459L165.279 190.274L184.125 244.275L153.656 195.871L162.557 252.369L141.22 199.304L139.89 256.483L128.371 200.46L116.852 256.483L115.522 199.304L94.1849 252.369L103.086 195.871L72.6165 244.275L91.4624 190.274L52.8402 232.459L81.0253 182.691L35.4915 217.301L72.11 173.366L21.1279 199.29L65.0029 162.6L10.2113 179.004L59.9326 150.737L3.09237 157.094L57.0619 138.159L0 134.265L56.4831 125.272L1.03357 111.251L58.2148 112.487L6.15984 88.7913L62.2014 100.218L15.2141 67.6079L68.3147 88.8575L27.9053 48.3816L76.3583 78.7711L43.8255 31.7303L86.0736 70.2831L62.463 18.189L97.1483 63.6663L83.2189 8.194L109.227 59.1332L105.426 2.065L121.921 56.8297L128.371 0Z" fill="#CBC7B5"/>
</svg>
