<svg width="125" height="126" viewBox="0 0 125 126" fill="none" xmlns="http://www.w3.org/2000/svg">
<path d="M62.0429 0L67.5128 31.9786L83.5901 3.79937L77.7929 35.7202L102.539 14.7392L86.1733 42.7522L116.603 31.5L91.6432 52.2264L124.086 52.0602L93.5429 63L124.086 73.9398L91.6432 73.7736L116.603 94.5L86.1733 83.2478L102.539 111.261L77.7929 90.2798L83.5901 122.201L67.5128 94.0214L62.0429 126L56.573 94.0214L40.4957 122.201L46.2929 90.2798L21.5473 111.261L37.9125 83.2478L7.48329 94.5L32.4425 73.7736L0 73.9398L30.5429 63L0 52.0602L32.4425 52.2264L7.48329 31.5L37.9125 42.7522L21.5473 14.7392L46.2929 35.7202L40.4957 3.79937L56.573 31.9786L62.0429 0Z" fill="#ECE8D9"/>
</svg>
