<svg width="18" height="14" viewBox="0 0 18 14" fill="none" xmlns="http://www.w3.org/2000/svg">
<path d="M1.59156 12.498C0.55599 11.404 0 10.177 0 8.18796C0 4.68796 2.47028 1.55096 6.06256 0L6.96046 1.37796C3.60736 3.18196 2.95187 5.52296 2.69047 6.99896C3.23036 6.72096 3.93716 6.62396 4.62986 6.68796C6.44366 6.85496 7.87336 8.33596 7.87336 10.177C7.87336 11.1053 7.50256 11.9955 6.84266 12.6519C6.18276 13.3083 5.28766 13.677 4.35446 13.677C3.27566 13.677 2.24407 13.187 1.59156 12.498ZM11.6457 12.498C10.6101 11.404 10.0541 10.177 10.0541 8.18796C10.0541 4.68796 12.5244 1.55096 16.1167 0L17.0145 1.37796C13.6615 3.18196 13.006 5.52296 12.7446 6.99896C13.2845 6.72096 13.9913 6.62396 14.684 6.68796C16.4977 6.85496 17.9274 8.33596 17.9274 10.177C17.9274 11.1053 17.5567 11.9955 16.8968 12.6519C16.2368 13.3083 15.3418 13.677 14.4085 13.677C13.3297 13.677 12.2982 13.187 11.6457 12.498Z" fill="#CBC7B5"/>
</svg>
