<svg width="18" height="14" viewBox="0 0 18 14" fill="none" xmlns="http://www.w3.org/2000/svg">
<path d="M16.3348 1.179C17.3704 2.273 17.9263 3.5 17.9263 5.489C17.9263 8.989 15.4561 12.126 11.8638 13.677L10.9659 12.299C14.319 10.495 14.9745 8.154 15.2359 6.678C14.696 6.956 13.9892 7.053 13.2965 6.989C11.4827 6.822 10.053 5.341 10.053 3.5C10.053 2.5717 10.4238 1.6815 11.0837 1.0251C11.7436 0.36875 12.6387 0 13.5719 0C14.6507 0 15.6823 0.49 16.3348 1.179ZM6.28073 1.179C7.31633 2.273 7.87233 3.5 7.87233 5.489C7.87233 8.989 5.40203 12.126 1.80973 13.677L0.911901 12.299C4.26493 10.495 4.92043 8.154 5.18183 6.678C4.64193 6.956 3.93513 7.053 3.24243 6.989C1.42868 6.822 0 5.341 0 3.5C0 2.5717 0.37074 1.6815 1.03067 1.0251C1.69059 0.36875 2.58564 0 3.51893 0C4.59773 0 5.62923 0.49 6.28173 1.179H6.28073Z" fill="#CBC7B5"/>
</svg>
